<mxfile host="app.diagrams.net" agent="Mozilla/5.0 (Windows NT 10.0; Win64; x64) AppleWebKit/537.36 (KHTML, like Gecko) Chrome/131.0.0.0 Safari/537.36" version="26.0.4">
  <diagram name="Seite-1" id="6TmRu7XE6SxBeCbtv25J">
    <mxGraphModel dx="1194" dy="750" grid="1" gridSize="10" guides="1" tooltips="1" connect="1" arrows="1" fold="1" page="1" pageScale="1" pageWidth="827" pageHeight="1169" math="0" shadow="0">
      <root>
        <mxCell id="0" />
        <mxCell id="1" parent="0" />
        <mxCell id="h0ZAmz_C1L0Bc9i06ohl-1" value="" style="swimlane;startSize=0;" vertex="1" parent="1">
          <mxGeometry x="200" y="50" width="310" height="440" as="geometry" />
        </mxCell>
        <mxCell id="h0ZAmz_C1L0Bc9i06ohl-2" value="Notensystem" style="text;html=1;align=center;verticalAlign=middle;whiteSpace=wrap;rounded=0;" vertex="1" parent="h0ZAmz_C1L0Bc9i06ohl-1">
          <mxGeometry x="74" y="10" width="140" height="30" as="geometry" />
        </mxCell>
        <mxCell id="h0ZAmz_C1L0Bc9i06ohl-3" value="changes grades" style="ellipse;whiteSpace=wrap;html=1;" vertex="1" parent="h0ZAmz_C1L0Bc9i06ohl-1">
          <mxGeometry x="95" y="350" width="120" height="70" as="geometry" />
        </mxCell>
        <mxCell id="h0ZAmz_C1L0Bc9i06ohl-10" value="deletes grades" style="ellipse;whiteSpace=wrap;html=1;" vertex="1" parent="h0ZAmz_C1L0Bc9i06ohl-1">
          <mxGeometry x="95" y="250" width="120" height="70" as="geometry" />
        </mxCell>
        <mxCell id="h0ZAmz_C1L0Bc9i06ohl-26" value="" style="edgeStyle=orthogonalEdgeStyle;rounded=0;orthogonalLoop=1;jettySize=auto;html=1;" edge="1" parent="h0ZAmz_C1L0Bc9i06ohl-1" source="h0ZAmz_C1L0Bc9i06ohl-12" target="h0ZAmz_C1L0Bc9i06ohl-11">
          <mxGeometry relative="1" as="geometry" />
        </mxCell>
        <mxCell id="h0ZAmz_C1L0Bc9i06ohl-12" value="uploads grades" style="ellipse;whiteSpace=wrap;html=1;" vertex="1" parent="h0ZAmz_C1L0Bc9i06ohl-1">
          <mxGeometry x="94" y="60" width="120" height="70" as="geometry" />
        </mxCell>
        <mxCell id="h0ZAmz_C1L0Bc9i06ohl-11" value="views grades" style="ellipse;whiteSpace=wrap;html=1;" vertex="1" parent="h0ZAmz_C1L0Bc9i06ohl-1">
          <mxGeometry x="95" y="160" width="120" height="70" as="geometry" />
        </mxCell>
        <mxCell id="h0ZAmz_C1L0Bc9i06ohl-7" value="Student" style="shape=umlActor;verticalLabelPosition=bottom;verticalAlign=top;html=1;outlineConnect=0;" vertex="1" parent="1">
          <mxGeometry x="570" y="110" width="80" height="140" as="geometry" />
        </mxCell>
        <mxCell id="h0ZAmz_C1L0Bc9i06ohl-8" value="Teacher" style="shape=umlActor;verticalLabelPosition=bottom;verticalAlign=top;html=1;outlineConnect=0;" vertex="1" parent="1">
          <mxGeometry x="50" y="210" width="70" height="130" as="geometry" />
        </mxCell>
        <mxCell id="h0ZAmz_C1L0Bc9i06ohl-9" value="Parent" style="shape=umlActor;verticalLabelPosition=bottom;verticalAlign=top;html=1;outlineConnect=0;" vertex="1" parent="1">
          <mxGeometry x="570" y="300" width="80" height="140" as="geometry" />
        </mxCell>
        <mxCell id="h0ZAmz_C1L0Bc9i06ohl-14" value="" style="endArrow=none;html=1;rounded=0;entryX=0;entryY=0.5;entryDx=0;entryDy=0;exitX=1;exitY=0.3333333333333333;exitDx=0;exitDy=0;exitPerimeter=0;" edge="1" parent="1" source="h0ZAmz_C1L0Bc9i06ohl-8" target="h0ZAmz_C1L0Bc9i06ohl-12">
          <mxGeometry width="50" height="50" relative="1" as="geometry">
            <mxPoint x="130" y="280" as="sourcePoint" />
            <mxPoint x="180" y="230" as="targetPoint" />
          </mxGeometry>
        </mxCell>
        <mxCell id="h0ZAmz_C1L0Bc9i06ohl-15" value="" style="endArrow=none;html=1;rounded=0;exitX=1;exitY=0.414;exitDx=0;exitDy=0;exitPerimeter=0;entryX=0;entryY=0.3333333333333333;entryDx=0;entryDy=0;entryPerimeter=0;" edge="1" parent="1" source="h0ZAmz_C1L0Bc9i06ohl-11" target="h0ZAmz_C1L0Bc9i06ohl-7">
          <mxGeometry width="50" height="50" relative="1" as="geometry">
            <mxPoint x="520" y="210" as="sourcePoint" />
            <mxPoint x="570" y="160" as="targetPoint" />
          </mxGeometry>
        </mxCell>
        <mxCell id="h0ZAmz_C1L0Bc9i06ohl-18" value="" style="endArrow=none;html=1;rounded=0;exitX=1;exitY=0.3333333333333333;exitDx=0;exitDy=0;exitPerimeter=0;entryX=0;entryY=0.5;entryDx=0;entryDy=0;" edge="1" parent="1" source="h0ZAmz_C1L0Bc9i06ohl-8" target="h0ZAmz_C1L0Bc9i06ohl-10">
          <mxGeometry width="50" height="50" relative="1" as="geometry">
            <mxPoint x="390" y="410" as="sourcePoint" />
            <mxPoint x="440" y="360" as="targetPoint" />
          </mxGeometry>
        </mxCell>
        <mxCell id="h0ZAmz_C1L0Bc9i06ohl-19" value="" style="endArrow=none;html=1;rounded=0;exitX=1;exitY=0.3333333333333333;exitDx=0;exitDy=0;exitPerimeter=0;entryX=0;entryY=0.5;entryDx=0;entryDy=0;" edge="1" parent="1" source="h0ZAmz_C1L0Bc9i06ohl-8" target="h0ZAmz_C1L0Bc9i06ohl-3">
          <mxGeometry width="50" height="50" relative="1" as="geometry">
            <mxPoint x="390" y="410" as="sourcePoint" />
            <mxPoint x="440" y="360" as="targetPoint" />
          </mxGeometry>
        </mxCell>
        <mxCell id="h0ZAmz_C1L0Bc9i06ohl-20" value="" style="endArrow=none;html=1;rounded=0;entryX=0;entryY=0.3333333333333333;entryDx=0;entryDy=0;entryPerimeter=0;exitX=1;exitY=0.5;exitDx=0;exitDy=0;" edge="1" parent="1" source="h0ZAmz_C1L0Bc9i06ohl-11" target="h0ZAmz_C1L0Bc9i06ohl-9">
          <mxGeometry width="50" height="50" relative="1" as="geometry">
            <mxPoint x="390" y="410" as="sourcePoint" />
            <mxPoint x="440" y="360" as="targetPoint" />
          </mxGeometry>
        </mxCell>
      </root>
    </mxGraphModel>
  </diagram>
</mxfile>
